<svg xmlns="http://www.w3.org/2000/svg" width="120" height="120" viewBox="0 0 120 120" fill="none">
<g clip-path="url(#clip0_0_396)">
<rect width="120" height="120" rx="28" fill="white"/>
<mask id="mask0_0_396" style="mask-type:luminance" maskUnits="userSpaceOnUse" x="0" y="0" width="120" height="120">
<rect width="120" height="120" rx="28" fill="white"/>
</mask>
<g mask="url(#mask0_0_396)">
<g filter="url(#filter0_d_0_396)">
<rect x="97" y="90" width="23" height="30" fill="#83D683"/>
</g>
<g filter="url(#filter1_d_0_396)">
<rect x="97" y="60" width="23" height="30" fill="#F4AA46"/>
</g>
<g filter="url(#filter2_d_0_396)">
<rect x="97" y="30" width="23" height="30" fill="#85D2F6"/>
</g>
<g filter="url(#filter3_d_0_396)">
<rect x="97" width="23" height="30" fill="#D0CDC7"/>
</g>
<g filter="url(#filter4_d_0_396)">
<rect width="105" height="120" fill="#E0DED6"/>
</g>
<circle cx="52" cy="60" r="35.5" stroke="#B8B1AC" stroke-width="3"/>
<mask id="mask1_0_396" style="mask-type:luminance" maskUnits="userSpaceOnUse" x="15" y="23" width="74" height="74">
<circle cx="52" cy="60" r="35.5" fill="white" stroke="white" stroke-width="3"/>
</mask>
<g mask="url(#mask1_0_396)">
<path fill-rule="evenodd" clip-rule="evenodd" d="M40.2911 91.9605V86.7134C40.2911 83.8466 43.1495 81.5733 46.0845 79.9372C49.1173 78.3757 52.3542 78.3757 57.374 76.9631C60.0385 75.6265 60.4552 73.8063 60.4552 73.8063C60.4552 73.8063 55.4905 73.2536 53.9224 72.732C51.3161 71.865 50.54 71.4193 50.3732 70.0269C50.4167 68.6625 54.0261 60.976 53.9224 58.5658C53.9224 52.6384 53.9262 49.6898 54.4821 47.7691C55.6673 43.4575 56.0016 41.7617 58.957 40.2498C60.1484 39.7394 61.3517 39.5679 63.941 40.2498C65.2396 38.9141 66.3934 38.3348 67.9776 38.4866C72.4838 39.0834 74.4316 39.8154 77.4573 46.4101C78.0442 50.8979 78.2144 53.6479 78.0442 59.104C77.7855 61.7742 80.4778 65.099 81.1284 70.0269C78.0442 72.732 71.4909 73.8063 71.4909 73.8063C71.4909 73.8063 71.7994 75.3652 72.649 75.7207C73.8966 76.6641 82.4123 78.3757 82.4123 78.3757V95.0951H40.2964L40.2911 91.9605Z" fill="#B8B1AC"/>
<path fill-rule="evenodd" clip-rule="evenodd" d="M18.4564 77.8122C15.2331 78.973 15.014 80.5708 15.014 80.5708C14.5136 80.7863 14 80.965 14 80.965V100.882H63V99.0952H37.3031L37.2911 91.9672L37.2911 86.7134C37.2911 82.2901 40.3066 79.136 45.1369 76.4434C46.1462 75.9221 47.0617 75.5486 48.0968 75.2311C47.8658 75.1408 47.6538 75.0456 47.4606 74.9426C46.6093 74.5773 46.2788 74.376 46.0844 73.0985C46.0418 71.8177 45.9412 70.9416 45.8661 70.2876C45.7999 69.711 45.7535 69.3071 45.7841 68.9508C46.3951 68.4631 46.8761 67.8227 47.4606 66.464C47.5277 66.3079 47.5661 66.004 47.6186 65.589C47.6668 65.2069 47.727 64.7307 47.8324 64.1891C47.9281 63.6976 47.9688 63.359 48.0031 63.0739C48.0676 62.5372 48.1093 62.1902 48.4521 61.3707C48.5376 61.1661 49.2883 60.7088 49.2883 60.7088C49.2883 60.7088 49.6946 60.4019 49.8421 59.9267C49.9987 59.4222 50.0972 58.8887 50.1395 57.9661C50.1634 57.8775 50.2169 57.7921 50.2812 57.6895C50.3741 57.5413 50.4895 57.3572 50.5704 57.0754C50.6357 56.8484 50.6962 56.6441 50.7515 56.4573L50.7521 56.4551L50.7522 56.4549C51.0079 55.5912 51.1533 55.1001 51.1479 54.4564C51.155 53.471 50.7278 53.1171 50.4746 53.1135C50.0581 53.0869 49.8421 53.4261 49.8421 53.4261C49.8421 53.4261 50.8521 48.9523 50.8449 45.8924C50.8026 44.6529 50.5837 42.8682 50.4079 42.2739C50.2321 41.6796 49.2883 40.6299 49.2883 40.6299C49.2883 40.6299 48.7644 39.3907 47.7108 38.673C46.964 38.1643 46.3182 38.007 45.7464 37.8677C45.3992 37.7832 45.0793 37.7052 44.7804 37.5593C44.5446 37.5143 44.1716 37.3604 43.7008 37.1662C42.6325 36.7255 41.0603 36.077 39.4433 36.0201C37.7957 35.8738 36.1236 36.7906 36.1236 36.7906C36.1236 36.7906 34.0847 37.181 33.4044 37.5593C31.8557 38.4204 30.5772 39.8748 30.5772 39.8748C30.5772 39.8748 29.3962 40.063 28.826 40.6299C28.7261 40.8007 28.6326 40.9589 28.5452 41.1069L28.5452 41.107C27.5536 42.7859 27.3339 43.1578 27.1777 45.6833C27.1642 46.7013 27.2314 48.0306 27.4789 50.3517C27.6443 51.9019 28.0035 53.4261 28.0035 53.4261C28.0035 53.4261 27.7467 53.1608 27.4789 53.1568C27.0569 53.1476 26.8357 53.7148 26.8416 54.4564C26.8446 54.8316 27.0071 56.4958 28.0035 58.242C27.9462 58.6627 28.0035 59.15 28.0035 59.15C28.0035 59.15 28.0386 59.8544 28.3899 60.3551C28.6104 60.6695 28.803 60.8081 29.0582 60.9918C29.22 61.1083 29.407 61.2429 29.6423 61.4519C29.8915 61.6492 29.9869 62.4125 30.0797 63.156C30.1373 63.6168 30.1939 64.07 30.2856 64.3761C30.3487 65.7537 30.4589 66.442 30.8189 67.2143C31.1789 67.9867 32.2669 68.9508 32.2669 68.9508C32.2669 68.9508 32.1803 72.5044 31.5264 73.9615C31.0694 74.9426 28.3899 74.9426 28.3899 74.9426C28.3899 74.9426 22.7491 76.2662 18.4564 77.8122Z" fill="#B8B1AC"/>
</g>
</g>
</g>
<defs>
<filter id="filter0_d_0_396" x="93" y="88" width="31" height="38" filterUnits="userSpaceOnUse" color-interpolation-filters="sRGB">
<feFlood flood-opacity="0" result="BackgroundImageFix"/>
<feColorMatrix in="SourceAlpha" type="matrix" values="0 0 0 0 0 0 0 0 0 0 0 0 0 0 0 0 0 0 127 0" result="hardAlpha"/>
<feOffset dy="2"/>
<feGaussianBlur stdDeviation="2"/>
<feColorMatrix type="matrix" values="0 0 0 0 0 0 0 0 0 0 0 0 0 0 0 0 0 0 0.2 0"/>
<feBlend mode="normal" in2="BackgroundImageFix" result="effect1_dropShadow_0_396"/>
<feBlend mode="normal" in="SourceGraphic" in2="effect1_dropShadow_0_396" result="shape"/>
</filter>
<filter id="filter1_d_0_396" x="93" y="58" width="31" height="38" filterUnits="userSpaceOnUse" color-interpolation-filters="sRGB">
<feFlood flood-opacity="0" result="BackgroundImageFix"/>
<feColorMatrix in="SourceAlpha" type="matrix" values="0 0 0 0 0 0 0 0 0 0 0 0 0 0 0 0 0 0 127 0" result="hardAlpha"/>
<feOffset dy="2"/>
<feGaussianBlur stdDeviation="2"/>
<feColorMatrix type="matrix" values="0 0 0 0 0 0 0 0 0 0 0 0 0 0 0 0 0 0 0.2 0"/>
<feBlend mode="normal" in2="BackgroundImageFix" result="effect1_dropShadow_0_396"/>
<feBlend mode="normal" in="SourceGraphic" in2="effect1_dropShadow_0_396" result="shape"/>
</filter>
<filter id="filter2_d_0_396" x="93" y="28" width="31" height="38" filterUnits="userSpaceOnUse" color-interpolation-filters="sRGB">
<feFlood flood-opacity="0" result="BackgroundImageFix"/>
<feColorMatrix in="SourceAlpha" type="matrix" values="0 0 0 0 0 0 0 0 0 0 0 0 0 0 0 0 0 0 127 0" result="hardAlpha"/>
<feOffset dy="2"/>
<feGaussianBlur stdDeviation="2"/>
<feColorMatrix type="matrix" values="0 0 0 0 0 0 0 0 0 0 0 0 0 0 0 0 0 0 0.2 0"/>
<feBlend mode="normal" in2="BackgroundImageFix" result="effect1_dropShadow_0_396"/>
<feBlend mode="normal" in="SourceGraphic" in2="effect1_dropShadow_0_396" result="shape"/>
</filter>
<filter id="filter3_d_0_396" x="93" y="-2" width="30" height="30" filterUnits="userSpaceOnUse" color-interpolation-filters="sRGB">
<feFlood flood-opacity="0" result="BackgroundImageFix"/>
<feColorMatrix in="SourceAlpha" type="matrix" values="0 0 0 0 0 0 0 0 0 0 0 0 0 0 0 0 0 0 127 0" result="hardAlpha"/>
<feOffset dy="2"/>
<feGaussianBlur stdDeviation="2"/>
<feColorMatrix type="matrix" values="0 0 0 0 0 0 0 0 0 0 0 0 0 0 0 0 0 0 0.2 0"/>
<feBlend mode="normal" in2="BackgroundImageFix" result="effect1_dropShadow_0_396"/>
<feBlend mode="normal" in="SourceGraphic" in2="effect1_dropShadow_0_396" result="shape"/>
</filter>
<filter id="filter4_d_0_396" x="-2" y="-4" width="113" height="128" filterUnits="userSpaceOnUse" color-interpolation-filters="sRGB">
<feFlood flood-opacity="0" result="BackgroundImageFix"/>
<feColorMatrix in="SourceAlpha" type="matrix" values="0 0 0 0 0 0 0 0 0 0 0 0 0 0 0 0 0 0 127 0" result="hardAlpha"/>
<feOffset dx="2"/>
<feGaussianBlur stdDeviation="2"/>
<feColorMatrix type="matrix" values="0 0 0 0 0 0 0 0 0 0 0 0 0 0 0 0 0 0 0.2 0"/>
<feBlend mode="normal" in2="BackgroundImageFix" result="effect1_dropShadow_0_396"/>
<feBlend mode="normal" in="SourceGraphic" in2="effect1_dropShadow_0_396" result="shape"/>
</filter>
<clipPath id="clip0_0_396">
<rect width="120" height="120" fill="white"/>
</clipPath>
</defs>
</svg>