<svg xmlns="http://www.w3.org/2000/svg" width="361" height="728" viewBox="0 0 361 728" fill="none">
<path fill-rule="evenodd" clip-rule="evenodd" d="M2 88C2 57.1971 2 41.7957 7.99464 30.0305C13.2677 19.6816 21.6816 11.2677 32.0305 5.99464C43.7957 0 59.1971 0 90 0H271C301.803 0 317.204 0 328.969 5.99464C339.318 11.2677 347.732 19.6816 353.005 30.0305C359 41.7957 359 57.1971 359 88V640C359 670.803 359 686.204 353.005 697.969C347.732 708.318 339.318 716.732 328.969 722.005C317.204 728 301.803 728 271 728H90C59.1971 728 43.7957 728 32.0305 722.005C21.6816 716.732 13.2677 708.318 7.99464 697.969C2 686.204 2 670.803 2 640V88Z" fill="url(#paint0_radial_0_8)"/>
<path d="M90 1.5H271C286.426 1.5 297.906 1.50117 307.002 2.24435C316.08 2.9861 322.653 4.45953 328.288 7.33115C338.355 12.4604 346.54 20.6448 351.669 30.7115C354.54 36.3474 356.014 42.9197 356.756 51.9983C357.499 61.0944 357.5 72.5738 357.5 88V640C357.5 655.426 357.499 666.906 356.756 676.002C356.014 685.08 354.54 691.653 351.669 697.289C346.54 707.355 338.355 715.54 328.288 720.669C322.653 723.54 316.08 725.014 307.002 725.756C297.906 726.499 286.426 726.5 271 726.5H90C74.5738 726.5 63.0944 726.499 53.9983 725.756C44.9197 725.014 38.3474 723.54 32.7115 720.669C22.6448 715.54 14.4604 707.355 9.33115 697.289C6.45953 691.653 4.9861 685.08 4.24435 676.002C3.50117 666.906 3.5 655.426 3.5 640V88C3.5 72.5738 3.50117 61.0944 4.24435 51.9983C4.9861 42.9197 6.45953 36.3474 9.33115 30.7115C14.4604 20.6448 22.6448 12.4604 32.7115 7.33115C38.3474 4.45953 44.9197 2.9861 53.9983 2.24435C63.0944 1.50117 74.5738 1.5 90 1.5Z" stroke="#375161" stroke-width="3"/>
<path opacity="0.5" d="M89.4 1.5H271.6C286.73 1.5 298.047 1.50039 307.026 2.23405C316 2.96723 322.595 4.43023 328.288 7.33115C338.355 12.4604 346.54 20.6448 351.669 30.7115C354.57 36.4049 356.033 42.9999 356.766 51.9736C357.5 60.9532 357.5 72.2703 357.5 87.4V640.6C357.5 655.73 357.5 667.047 356.766 676.026C356.033 685 354.57 691.595 351.669 697.289C346.54 707.355 338.355 715.54 328.288 720.669C322.595 723.57 316 725.033 307.026 725.766C298.047 726.5 286.73 726.5 271.6 726.5H89.4C74.2703 726.5 62.9531 726.5 53.9736 725.766C44.9999 725.033 38.4049 723.57 32.7115 720.669C22.6448 715.54 14.4604 707.355 9.33115 697.289C6.43023 691.595 4.96723 685 4.23405 676.026C3.50039 667.047 3.5 655.73 3.5 640.6V87.4C3.5 72.2703 3.50039 60.9532 4.23405 51.9736C4.96723 42.9999 6.43023 36.4049 9.33115 30.7115C14.4604 20.6448 22.6448 12.4604 32.7115 7.33115C38.4049 4.43023 44.9999 2.96723 53.9736 2.23405C62.9532 1.50039 74.2703 1.5 89.4 1.5Z" stroke="url(#paint1_linear_0_8)"/>
<path d="M90 0.5H271C286.41 0.5 297.937 0.500389 307.083 1.24767C316.224 1.99447 322.942 3.48472 328.742 6.44015C338.997 11.6652 347.335 20.0027 352.56 30.2575C355.515 36.0579 357.006 42.7764 357.752 51.9168C358.5 61.0631 358.5 72.5903 358.5 88V640C358.5 655.41 358.5 666.937 357.752 676.083C357.006 685.224 355.515 691.942 352.56 697.742C347.335 707.997 338.997 716.335 328.742 721.56C322.942 724.515 316.224 726.006 307.083 726.752C297.937 727.5 286.41 727.5 271 727.5H90C74.5903 727.5 63.0631 727.5 53.9168 726.752C44.7764 726.006 38.0579 724.515 32.2575 721.56C22.0027 716.335 13.6652 707.997 8.44015 697.742C5.48472 691.942 3.99447 685.224 3.24767 676.083C2.50039 666.937 2.5 655.41 2.5 640V88C2.5 72.5903 2.50039 61.0631 3.24767 51.9168C3.99447 42.7764 5.48472 36.0579 8.44015 30.2575C13.6652 20.0027 22.0027 11.6652 32.2575 6.44015C38.0579 3.48472 44.7764 1.99447 53.9168 1.24767C63.0631 0.500389 74.5903 0.5 90 0.5Z" stroke="#081A25"/>
<path fill-rule="evenodd" clip-rule="evenodd" d="M7 85C7 56.9974 7 42.9961 12.4497 32.3005C17.2433 22.8924 24.8924 15.2433 34.3005 10.4497C44.9961 5 58.9974 5 87 5H274C302.003 5 316.004 5 326.7 10.4497C336.108 15.2433 343.757 22.8924 348.55 32.3005C354 42.9961 354 56.9974 354 85V643C354 671.003 354 685.004 348.55 695.7C343.757 705.108 336.108 712.757 326.7 717.55C316.004 723 302.003 723 274 723H87C58.9974 723 44.9961 723 34.3005 717.55C24.8924 712.757 17.2433 705.108 12.4497 695.7C7 685.004 7 671.003 7 643V85Z" fill="black"/>
<rect opacity="0.8" x="2" y="648" width="5" height="4" fill="#3D4C53"/>
<rect x="2" y="648" width="1" height="4" fill="#202D34"/>
<rect opacity="0.8" x="74" y="728" width="5" height="4" transform="rotate(-90 74 728)" fill="#3D4C53"/>
<rect x="74" y="728" width="1" height="4" transform="rotate(-90 74 728)" fill="#202D34"/>
<rect opacity="0.8" x="2" y="73" width="5" height="4" fill="#47555E"/>
<rect opacity="0.8" x="354" y="73" width="5" height="4" fill="#47555E"/>
<rect x="358" y="73" width="1" height="4" fill="#414B52"/>
<rect x="2" y="73" width="1" height="4" fill="#414B52"/>
<rect opacity="0.8" x="283" y="5" width="5" height="4" transform="rotate(-90 283 5)" fill="#47555E"/>
<rect x="283" y="1" width="1" height="4" transform="rotate(-90 283 1)" fill="#414B52"/>
<rect opacity="0.8" width="5" height="4" transform="matrix(-1 0 0 1 359 648)" fill="#3D4C53"/>
<rect width="1" height="4" transform="matrix(-1 0 0 1 359 648)" fill="#202D34"/>
<g filter="url(#filter0_iiii_0_8)">
<path d="M361 185C361 184.448 360.552 184 360 184H359V270H360C360.552 270 361 269.552 361 269V185Z" fill="#91ADBE"/>
</g>
<g filter="url(#filter1_iiiiii_0_8)">
<path d="M0 170C0 169.448 0.447715 169 1 169H2V223H1C0.447715 223 0 222.552 0 222V170Z" fill="#91ADBE"/>
</g>
<g filter="url(#filter2_iiiiii_0_8)">
<path d="M0 116C0 115.448 0.447715 115 1 115H2V143H1C0.447715 143 0 142.552 0 142V116Z" fill="#91ADBE"/>
</g>
<g filter="url(#filter3_iiiiii_0_8)">
<path d="M0 239C0 238.448 0.447715 238 1 238H2V292H1C0.447715 292 0 291.552 0 291V239Z" fill="#91ADBE"/>
</g>
<path fill-rule="evenodd" clip-rule="evenodd" d="M19 81C19 58.5979 19 47.3968 23.3597 38.8404C27.1947 31.3139 33.3139 25.1947 40.8404 21.3597C49.3968 17 60.5979 17 83 17H278C300.402 17 311.603 17 320.16 21.3597C327.686 25.1947 333.805 31.3139 337.64 38.8404C342 47.3968 342 58.5979 342 81V647C342 669.402 342 680.603 337.64 689.16C333.805 696.686 327.686 702.805 320.16 706.64C311.603 711 300.402 711 278 711H83C60.5979 711 49.3968 711 40.8404 706.64C33.3139 702.805 27.1947 696.686 23.3597 689.16C19 680.603 19 669.402 19 647V81Z" fill="url(#paint2_radial_0_8)"/>
<mask id="mask0_0_8" style="mask-type:luminance" maskUnits="userSpaceOnUse" x="19" y="17" width="323" height="694">
<path fill-rule="evenodd" clip-rule="evenodd" d="M19 81C19 58.5979 19 47.3968 23.3597 38.8404C27.1947 31.3139 33.3139 25.1947 40.8404 21.3597C49.3968 17 60.5979 17 83 17H278C300.402 17 311.603 17 320.16 21.3597C327.686 25.1947 333.805 31.3139 337.64 38.8404C342 47.3968 342 58.5979 342 81V647C342 669.402 342 680.603 337.64 689.16C333.805 696.686 327.686 702.805 320.16 706.64C311.603 711 300.402 711 278 711H83C60.5979 711 49.3968 711 40.8404 706.64C33.3139 702.805 27.1947 696.686 23.3597 689.16C19 680.603 19 669.402 19 647V81Z" fill="white"/>
</mask>
<g mask="url(#mask0_0_8)">
<path d="M48.5 820.5C-164.156 820.5 -336.5 657.506 -336.5 456.5C-336.5 255.494 -164.156 92.5 48.5 92.5C261.156 92.5 433.5 255.494 433.5 456.5C433.5 657.506 261.156 820.5 48.5 820.5Z" fill="url(#paint3_radial_0_8)" stroke="url(#paint4_radial_0_8)" stroke-linecap="round" stroke-linejoin="round"/>
<g filter="url(#filter4_f_0_8)">
<path d="M46.5 819.5C-165.658 819.5 -337.5 656.901 -337.5 456.5C-337.5 256.099 -165.658 93.5 46.5 93.5C258.658 93.5 430.5 256.099 430.5 456.5C430.5 656.901 258.658 819.5 46.5 819.5Z" stroke="url(#paint5_radial_0_8)" stroke-width="3" stroke-linecap="round" stroke-linejoin="round"/>
</g>
<path d="M48.5 820.5C-164.156 820.5 -336.5 657.506 -336.5 456.5C-336.5 255.494 -164.156 92.5 48.5 92.5C261.156 92.5 433.5 255.494 433.5 456.5C433.5 657.506 261.156 820.5 48.5 820.5Z" stroke="url(#paint6_radial_0_8)" stroke-linecap="round" stroke-linejoin="round"/>
<g filter="url(#filter5_f_0_8)">
<ellipse cx="50.5" cy="456.5" rx="364.5" ry="385.5" transform="rotate(90 50.5 456.5)" fill="url(#paint7_radial_0_8)"/>
<path d="M50.5 820C-161.907 820 -334 657.203 -334 456.5C-334 255.797 -161.907 93 50.5 93C262.907 93 435 255.797 435 456.5C435 657.203 262.907 820 50.5 820Z" stroke="url(#paint8_radial_0_8)" stroke-width="2" stroke-linecap="round" stroke-linejoin="round"/>
</g>
<path d="M50.5 820.5C-162.156 820.5 -334.5 657.506 -334.5 456.5C-334.5 255.494 -162.156 92.5 50.5 92.5C263.156 92.5 435.5 255.494 435.5 456.5C435.5 657.506 263.156 820.5 50.5 820.5Z" stroke="url(#paint9_radial_0_8)" stroke-linecap="round" stroke-linejoin="round"/>
<g filter="url(#filter6_f_0_8)">
<path d="M50.5 820C-161.907 820 -334 657.203 -334 456.5C-334 255.797 -161.907 93 50.5 93C262.907 93 435 255.797 435 456.5C435 657.203 262.907 820 50.5 820Z" stroke="url(#paint10_radial_0_8)" stroke-width="2" stroke-linecap="round" stroke-linejoin="round"/>
</g>
<path d="M225.5 598.5C225.5 811.156 62.5056 983.5 -138.5 983.5C-339.506 983.5 -502.5 811.156 -502.5 598.5C-502.5 385.844 -339.506 213.5 -138.5 213.5C62.5056 213.5 225.5 385.844 225.5 598.5Z" fill="url(#paint11_radial_0_8)" stroke="url(#paint12_radial_0_8)" stroke-linecap="round" stroke-linejoin="round"/>
<g filter="url(#filter7_f_0_8)">
<path d="M224.5 600.5C224.5 812.658 61.9013 984.5 -138.5 984.5C-338.901 984.5 -501.5 812.658 -501.5 600.5C-501.5 388.342 -338.901 216.5 -138.5 216.5C61.9013 216.5 224.5 388.342 224.5 600.5Z" stroke="url(#paint13_radial_0_8)" stroke-width="3" stroke-linecap="round" stroke-linejoin="round"/>
</g>
<path d="M225.5 598.5C225.5 811.156 62.5056 983.5 -138.5 983.5C-339.506 983.5 -502.5 811.156 -502.5 598.5C-502.5 385.844 -339.506 213.5 -138.5 213.5C62.5056 213.5 225.5 385.844 225.5 598.5Z" stroke="url(#paint14_radial_0_8)" stroke-linecap="round" stroke-linejoin="round"/>
<g filter="url(#filter8_f_0_8)">
<ellipse cx="-138.5" cy="596.5" rx="364.5" ry="385.5" fill="url(#paint15_radial_0_8)"/>
<path d="M225 596.5C225 808.907 62.2035 981 -138.5 981C-339.203 981 -502 808.907 -502 596.5C-502 384.093 -339.203 212 -138.5 212C62.2035 212 225 384.093 225 596.5Z" stroke="url(#paint16_radial_0_8)" stroke-width="2" stroke-linecap="round" stroke-linejoin="round"/>
</g>
<path d="M225.5 596.5C225.5 809.156 62.5056 981.5 -138.5 981.5C-339.506 981.5 -502.5 809.156 -502.5 596.5C-502.5 383.844 -339.506 211.5 -138.5 211.5C62.5056 211.5 225.5 383.844 225.5 596.5Z" stroke="url(#paint17_radial_0_8)" stroke-linecap="round" stroke-linejoin="round"/>
<g filter="url(#filter9_f_0_8)">
<path d="M225 596.5C225 808.907 62.2035 981 -138.5 981C-339.203 981 -502 808.907 -502 596.5C-502 384.093 -339.203 212 -138.5 212C62.2035 212 225 384.093 225 596.5Z" stroke="url(#paint18_radial_0_8)" stroke-width="2" stroke-linecap="round" stroke-linejoin="round"/>
</g>
</g>
<path fill-rule="evenodd" clip-rule="evenodd" d="M91 17H271C271 17 267.991 17 268 20.25C267.998 21.06 267.997 22.8055 267.996 24.9874C267.994 34.9317 259.936 43 249.992 43H111.859C101.973 43 93.9035 35.027 93.935 25.1413C93.9422 22.8641 93.9615 21.0475 94 20.25C93.8458 17.0741 91 17 91 17Z" fill="black"/>
<g filter="url(#filter10_iii_0_8)">
<rect x="161" y="24" width="39" height="6" rx="3" fill="#131313"/>
</g>
<circle cx="216.5" cy="26.5" r="6" fill="black" stroke="url(#paint19_linear_0_8)"/>
<ellipse cx="218.45" cy="26.5" rx="1.95" ry="2.6" fill="url(#paint20_radial_0_8)"/>
<ellipse cx="214.55" cy="26.5" rx="1.95" ry="2.6" fill="url(#paint21_radial_0_8)"/>
<rect x="217.8" y="26.5" width="1.3" height="1.3" fill="#3367A1"/>
<rect x="213.9" y="26.5" width="1.3" height="1.3" fill="#213E60"/>
<defs>
<filter id="filter0_iiii_0_8" x="359" y="183" width="2" height="88" filterUnits="userSpaceOnUse" color-interpolation-filters="sRGB">
<feFlood flood-opacity="0" result="BackgroundImageFix"/>
<feBlend mode="normal" in="SourceGraphic" in2="BackgroundImageFix" result="shape"/>
<feColorMatrix in="SourceAlpha" type="matrix" values="0 0 0 0 0 0 0 0 0 0 0 0 0 0 0 0 0 0 127 0" result="hardAlpha"/>
<feOffset dx="1"/>
<feComposite in2="hardAlpha" operator="arithmetic" k2="-1" k3="1"/>
<feColorMatrix type="matrix" values="0 0 0 0 0.407843 0 0 0 0 0.529412 0 0 0 0 0.603922 0 0 0 1 0"/>
<feBlend mode="normal" in2="shape" result="effect1_innerShadow_0_8"/>
<feColorMatrix in="SourceAlpha" type="matrix" values="0 0 0 0 0 0 0 0 0 0 0 0 0 0 0 0 0 0 127 0" result="hardAlpha"/>
<feOffset dy="-3"/>
<feGaussianBlur stdDeviation="0.5"/>
<feComposite in2="hardAlpha" operator="arithmetic" k2="-1" k3="1"/>
<feColorMatrix type="matrix" values="0 0 0 0 0.168627 0 0 0 0 0.25098 0 0 0 0 0.313726 0 0 0 1 0"/>
<feBlend mode="normal" in2="effect1_innerShadow_0_8" result="effect2_innerShadow_0_8"/>
<feColorMatrix in="SourceAlpha" type="matrix" values="0 0 0 0 0 0 0 0 0 0 0 0 0 0 0 0 0 0 127 0" result="hardAlpha"/>
<feOffset dy="3"/>
<feGaussianBlur stdDeviation="0.5"/>
<feComposite in2="hardAlpha" operator="arithmetic" k2="-1" k3="1"/>
<feColorMatrix type="matrix" values="0 0 0 0 0.168627 0 0 0 0 0.25098 0 0 0 0 0.313726 0 0 0 1 0"/>
<feBlend mode="normal" in2="effect2_innerShadow_0_8" result="effect3_innerShadow_0_8"/>
<feColorMatrix in="SourceAlpha" type="matrix" values="0 0 0 0 0 0 0 0 0 0 0 0 0 0 0 0 0 0 127 0" result="hardAlpha"/>
<feOffset dy="-1"/>
<feComposite in2="hardAlpha" operator="arithmetic" k2="-1" k3="1"/>
<feColorMatrix type="matrix" values="0 0 0 0 0.298039 0 0 0 0 0.364706 0 0 0 0 0.396078 0 0 0 1 0"/>
<feBlend mode="normal" in2="effect3_innerShadow_0_8" result="effect4_innerShadow_0_8"/>
</filter>
<filter id="filter1_iiiiii_0_8" x="-1" y="168" width="3" height="56" filterUnits="userSpaceOnUse" color-interpolation-filters="sRGB">
<feFlood flood-opacity="0" result="BackgroundImageFix"/>
<feBlend mode="normal" in="SourceGraphic" in2="BackgroundImageFix" result="shape"/>
<feColorMatrix in="SourceAlpha" type="matrix" values="0 0 0 0 0 0 0 0 0 0 0 0 0 0 0 0 0 0 127 0" result="hardAlpha"/>
<feOffset dy="-3"/>
<feGaussianBlur stdDeviation="0.5"/>
<feComposite in2="hardAlpha" operator="arithmetic" k2="-1" k3="1"/>
<feColorMatrix type="matrix" values="0 0 0 0 0.168627 0 0 0 0 0.25098 0 0 0 0 0.313726 0 0 0 1 0"/>
<feBlend mode="normal" in2="shape" result="effect1_innerShadow_0_8"/>
<feColorMatrix in="SourceAlpha" type="matrix" values="0 0 0 0 0 0 0 0 0 0 0 0 0 0 0 0 0 0 127 0" result="hardAlpha"/>
<feOffset dx="-1" dy="3"/>
<feGaussianBlur stdDeviation="0.5"/>
<feComposite in2="hardAlpha" operator="arithmetic" k2="-1" k3="1"/>
<feColorMatrix type="matrix" values="0 0 0 0 0.0313726 0 0 0 0 0.101961 0 0 0 0 0.145098 0 0 0 1 0"/>
<feBlend mode="normal" in2="effect1_innerShadow_0_8" result="effect2_innerShadow_0_8"/>
<feColorMatrix in="SourceAlpha" type="matrix" values="0 0 0 0 0 0 0 0 0 0 0 0 0 0 0 0 0 0 127 0" result="hardAlpha"/>
<feOffset dy="2"/>
<feComposite in2="hardAlpha" operator="arithmetic" k2="-1" k3="1"/>
<feColorMatrix type="matrix" values="0 0 0 0 0.435231 0 0 0 0 0.513757 0 0 0 0 0.556792 0 0 0 1 0"/>
<feBlend mode="normal" in2="effect2_innerShadow_0_8" result="effect3_innerShadow_0_8"/>
<feColorMatrix in="SourceAlpha" type="matrix" values="0 0 0 0 0 0 0 0 0 0 0 0 0 0 0 0 0 0 127 0" result="hardAlpha"/>
<feOffset dy="-2"/>
<feComposite in2="hardAlpha" operator="arithmetic" k2="-1" k3="1"/>
<feColorMatrix type="matrix" values="0 0 0 0 0.435294 0 0 0 0 0.513726 0 0 0 0 0.556863 0 0 0 1 0"/>
<feBlend mode="normal" in2="effect3_innerShadow_0_8" result="effect4_innerShadow_0_8"/>
<feColorMatrix in="SourceAlpha" type="matrix" values="0 0 0 0 0 0 0 0 0 0 0 0 0 0 0 0 0 0 127 0" result="hardAlpha"/>
<feOffset dy="-1"/>
<feComposite in2="hardAlpha" operator="arithmetic" k2="-1" k3="1"/>
<feColorMatrix type="matrix" values="0 0 0 0 0.0313726 0 0 0 0 0.101961 0 0 0 0 0.145098 0 0 0 1 0"/>
<feBlend mode="normal" in2="effect4_innerShadow_0_8" result="effect5_innerShadow_0_8"/>
<feColorMatrix in="SourceAlpha" type="matrix" values="0 0 0 0 0 0 0 0 0 0 0 0 0 0 0 0 0 0 127 0" result="hardAlpha"/>
<feOffset dy="1"/>
<feComposite in2="hardAlpha" operator="arithmetic" k2="-1" k3="1"/>
<feColorMatrix type="matrix" values="0 0 0 0 0.0313726 0 0 0 0 0.101961 0 0 0 0 0.145098 0 0 0 1 0"/>
<feBlend mode="normal" in2="effect5_innerShadow_0_8" result="effect6_innerShadow_0_8"/>
</filter>
<filter id="filter2_iiiiii_0_8" x="-1" y="114" width="3" height="30" filterUnits="userSpaceOnUse" color-interpolation-filters="sRGB">
<feFlood flood-opacity="0" result="BackgroundImageFix"/>
<feBlend mode="normal" in="SourceGraphic" in2="BackgroundImageFix" result="shape"/>
<feColorMatrix in="SourceAlpha" type="matrix" values="0 0 0 0 0 0 0 0 0 0 0 0 0 0 0 0 0 0 127 0" result="hardAlpha"/>
<feOffset dy="-3"/>
<feGaussianBlur stdDeviation="0.5"/>
<feComposite in2="hardAlpha" operator="arithmetic" k2="-1" k3="1"/>
<feColorMatrix type="matrix" values="0 0 0 0 0.168627 0 0 0 0 0.25098 0 0 0 0 0.313726 0 0 0 1 0"/>
<feBlend mode="normal" in2="shape" result="effect1_innerShadow_0_8"/>
<feColorMatrix in="SourceAlpha" type="matrix" values="0 0 0 0 0 0 0 0 0 0 0 0 0 0 0 0 0 0 127 0" result="hardAlpha"/>
<feOffset dx="-1" dy="3"/>
<feGaussianBlur stdDeviation="0.5"/>
<feComposite in2="hardAlpha" operator="arithmetic" k2="-1" k3="1"/>
<feColorMatrix type="matrix" values="0 0 0 0 0.0313726 0 0 0 0 0.101961 0 0 0 0 0.145098 0 0 0 1 0"/>
<feBlend mode="normal" in2="effect1_innerShadow_0_8" result="effect2_innerShadow_0_8"/>
<feColorMatrix in="SourceAlpha" type="matrix" values="0 0 0 0 0 0 0 0 0 0 0 0 0 0 0 0 0 0 127 0" result="hardAlpha"/>
<feOffset dy="2"/>
<feComposite in2="hardAlpha" operator="arithmetic" k2="-1" k3="1"/>
<feColorMatrix type="matrix" values="0 0 0 0 0.435231 0 0 0 0 0.513757 0 0 0 0 0.556792 0 0 0 1 0"/>
<feBlend mode="normal" in2="effect2_innerShadow_0_8" result="effect3_innerShadow_0_8"/>
<feColorMatrix in="SourceAlpha" type="matrix" values="0 0 0 0 0 0 0 0 0 0 0 0 0 0 0 0 0 0 127 0" result="hardAlpha"/>
<feOffset dy="-2"/>
<feComposite in2="hardAlpha" operator="arithmetic" k2="-1" k3="1"/>
<feColorMatrix type="matrix" values="0 0 0 0 0.435294 0 0 0 0 0.513726 0 0 0 0 0.556863 0 0 0 1 0"/>
<feBlend mode="normal" in2="effect3_innerShadow_0_8" result="effect4_innerShadow_0_8"/>
<feColorMatrix in="SourceAlpha" type="matrix" values="0 0 0 0 0 0 0 0 0 0 0 0 0 0 0 0 0 0 127 0" result="hardAlpha"/>
<feOffset dy="-1"/>
<feComposite in2="hardAlpha" operator="arithmetic" k2="-1" k3="1"/>
<feColorMatrix type="matrix" values="0 0 0 0 0.0313726 0 0 0 0 0.101961 0 0 0 0 0.145098 0 0 0 1 0"/>
<feBlend mode="normal" in2="effect4_innerShadow_0_8" result="effect5_innerShadow_0_8"/>
<feColorMatrix in="SourceAlpha" type="matrix" values="0 0 0 0 0 0 0 0 0 0 0 0 0 0 0 0 0 0 127 0" result="hardAlpha"/>
<feOffset dy="1"/>
<feComposite in2="hardAlpha" operator="arithmetic" k2="-1" k3="1"/>
<feColorMatrix type="matrix" values="0 0 0 0 0.0313726 0 0 0 0 0.101961 0 0 0 0 0.145098 0 0 0 1 0"/>
<feBlend mode="normal" in2="effect5_innerShadow_0_8" result="effect6_innerShadow_0_8"/>
</filter>
<filter id="filter3_iiiiii_0_8" x="-1" y="237" width="3" height="56" filterUnits="userSpaceOnUse" color-interpolation-filters="sRGB">
<feFlood flood-opacity="0" result="BackgroundImageFix"/>
<feBlend mode="normal" in="SourceGraphic" in2="BackgroundImageFix" result="shape"/>
<feColorMatrix in="SourceAlpha" type="matrix" values="0 0 0 0 0 0 0 0 0 0 0 0 0 0 0 0 0 0 127 0" result="hardAlpha"/>
<feOffset dy="-3"/>
<feGaussianBlur stdDeviation="0.5"/>
<feComposite in2="hardAlpha" operator="arithmetic" k2="-1" k3="1"/>
<feColorMatrix type="matrix" values="0 0 0 0 0.168627 0 0 0 0 0.25098 0 0 0 0 0.313726 0 0 0 1 0"/>
<feBlend mode="normal" in2="shape" result="effect1_innerShadow_0_8"/>
<feColorMatrix in="SourceAlpha" type="matrix" values="0 0 0 0 0 0 0 0 0 0 0 0 0 0 0 0 0 0 127 0" result="hardAlpha"/>
<feOffset dx="-1" dy="3"/>
<feGaussianBlur stdDeviation="0.5"/>
<feComposite in2="hardAlpha" operator="arithmetic" k2="-1" k3="1"/>
<feColorMatrix type="matrix" values="0 0 0 0 0.0313726 0 0 0 0 0.101961 0 0 0 0 0.145098 0 0 0 1 0"/>
<feBlend mode="normal" in2="effect1_innerShadow_0_8" result="effect2_innerShadow_0_8"/>
<feColorMatrix in="SourceAlpha" type="matrix" values="0 0 0 0 0 0 0 0 0 0 0 0 0 0 0 0 0 0 127 0" result="hardAlpha"/>
<feOffset dy="2"/>
<feComposite in2="hardAlpha" operator="arithmetic" k2="-1" k3="1"/>
<feColorMatrix type="matrix" values="0 0 0 0 0.435231 0 0 0 0 0.513757 0 0 0 0 0.556792 0 0 0 1 0"/>
<feBlend mode="normal" in2="effect2_innerShadow_0_8" result="effect3_innerShadow_0_8"/>
<feColorMatrix in="SourceAlpha" type="matrix" values="0 0 0 0 0 0 0 0 0 0 0 0 0 0 0 0 0 0 127 0" result="hardAlpha"/>
<feOffset dy="-2"/>
<feComposite in2="hardAlpha" operator="arithmetic" k2="-1" k3="1"/>
<feColorMatrix type="matrix" values="0 0 0 0 0.435294 0 0 0 0 0.513726 0 0 0 0 0.556863 0 0 0 1 0"/>
<feBlend mode="normal" in2="effect3_innerShadow_0_8" result="effect4_innerShadow_0_8"/>
<feColorMatrix in="SourceAlpha" type="matrix" values="0 0 0 0 0 0 0 0 0 0 0 0 0 0 0 0 0 0 127 0" result="hardAlpha"/>
<feOffset dy="-1"/>
<feComposite in2="hardAlpha" operator="arithmetic" k2="-1" k3="1"/>
<feColorMatrix type="matrix" values="0 0 0 0 0.0313726 0 0 0 0 0.101961 0 0 0 0 0.145098 0 0 0 1 0"/>
<feBlend mode="normal" in2="effect4_innerShadow_0_8" result="effect5_innerShadow_0_8"/>
<feColorMatrix in="SourceAlpha" type="matrix" values="0 0 0 0 0 0 0 0 0 0 0 0 0 0 0 0 0 0 127 0" result="hardAlpha"/>
<feOffset dy="1"/>
<feComposite in2="hardAlpha" operator="arithmetic" k2="-1" k3="1"/>
<feColorMatrix type="matrix" values="0 0 0 0 0.0313726 0 0 0 0 0.101961 0 0 0 0 0.145098 0 0 0 1 0"/>
<feBlend mode="normal" in2="effect5_innerShadow_0_8" result="effect6_innerShadow_0_8"/>
</filter>
<filter id="filter4_f_0_8" x="-349.873" y="81.1269" width="792.746" height="750.746" filterUnits="userSpaceOnUse" color-interpolation-filters="sRGB">
<feFlood flood-opacity="0" result="BackgroundImageFix"/>
<feBlend mode="normal" in="SourceGraphic" in2="BackgroundImageFix" result="shape"/>
<feGaussianBlur stdDeviation="5.43656" result="effect1_foregroundBlur_0_8"/>
</filter>
<filter id="filter5_f_0_8" x="-337.718" y="89.2817" width="776.437" height="734.437" filterUnits="userSpaceOnUse" color-interpolation-filters="sRGB">
<feFlood flood-opacity="0" result="BackgroundImageFix"/>
<feBlend mode="normal" in="SourceGraphic" in2="BackgroundImageFix" result="shape"/>
<feGaussianBlur stdDeviation="1.35914" result="effect1_foregroundBlur_0_8"/>
</filter>
<filter id="filter6_f_0_8" x="-340.437" y="86.5634" width="781.873" height="739.873" filterUnits="userSpaceOnUse" color-interpolation-filters="sRGB">
<feFlood flood-opacity="0" result="BackgroundImageFix"/>
<feBlend mode="normal" in="SourceGraphic" in2="BackgroundImageFix" result="shape"/>
<feGaussianBlur stdDeviation="2.71828" result="effect1_foregroundBlur_0_8"/>
</filter>
<filter id="filter7_f_0_8" x="-513.873" y="204.127" width="750.746" height="792.746" filterUnits="userSpaceOnUse" color-interpolation-filters="sRGB">
<feFlood flood-opacity="0" result="BackgroundImageFix"/>
<feBlend mode="normal" in="SourceGraphic" in2="BackgroundImageFix" result="shape"/>
<feGaussianBlur stdDeviation="5.43656" result="effect1_foregroundBlur_0_8"/>
</filter>
<filter id="filter8_f_0_8" x="-505.718" y="208.282" width="734.437" height="776.437" filterUnits="userSpaceOnUse" color-interpolation-filters="sRGB">
<feFlood flood-opacity="0" result="BackgroundImageFix"/>
<feBlend mode="normal" in="SourceGraphic" in2="BackgroundImageFix" result="shape"/>
<feGaussianBlur stdDeviation="1.35914" result="effect1_foregroundBlur_0_8"/>
</filter>
<filter id="filter9_f_0_8" x="-508.437" y="205.563" width="739.873" height="781.873" filterUnits="userSpaceOnUse" color-interpolation-filters="sRGB">
<feFlood flood-opacity="0" result="BackgroundImageFix"/>
<feBlend mode="normal" in="SourceGraphic" in2="BackgroundImageFix" result="shape"/>
<feGaussianBlur stdDeviation="2.71828" result="effect1_foregroundBlur_0_8"/>
</filter>
<filter id="filter10_iii_0_8" x="161" y="24" width="39" height="6" filterUnits="userSpaceOnUse" color-interpolation-filters="sRGB">
<feFlood flood-opacity="0" result="BackgroundImageFix"/>
<feBlend mode="normal" in="SourceGraphic" in2="BackgroundImageFix" result="shape"/>
<feColorMatrix in="SourceAlpha" type="matrix" values="0 0 0 0 0 0 0 0 0 0 0 0 0 0 0 0 0 0 127 0" result="hardAlpha"/>
<feOffset/>
<feGaussianBlur stdDeviation="0.5"/>
<feComposite in2="hardAlpha" operator="arithmetic" k2="-1" k3="1"/>
<feColorMatrix type="matrix" values="0 0 0 0 0 0 0 0 0 0 0 0 0 0 0 0 0 0 1 0"/>
<feBlend mode="normal" in2="shape" result="effect1_innerShadow_0_8"/>
<feColorMatrix in="SourceAlpha" type="matrix" values="0 0 0 0 0 0 0 0 0 0 0 0 0 0 0 0 0 0 127 0" result="hardAlpha"/>
<feOffset dx="1"/>
<feComposite in2="hardAlpha" operator="arithmetic" k2="-1" k3="1"/>
<feColorMatrix type="matrix" values="0 0 0 0 1 0 0 0 0 1 0 0 0 0 1 0 0 0 0.05 0"/>
<feBlend mode="normal" in2="effect1_innerShadow_0_8" result="effect2_innerShadow_0_8"/>
<feColorMatrix in="SourceAlpha" type="matrix" values="0 0 0 0 0 0 0 0 0 0 0 0 0 0 0 0 0 0 127 0" result="hardAlpha"/>
<feOffset dx="-1"/>
<feComposite in2="hardAlpha" operator="arithmetic" k2="-1" k3="1"/>
<feColorMatrix type="matrix" values="0 0 0 0 1 0 0 0 0 1 0 0 0 0 1 0 0 0 0.05 0"/>
<feBlend mode="normal" in2="effect2_innerShadow_0_8" result="effect3_innerShadow_0_8"/>
</filter>
<radialGradient id="paint0_radial_0_8" cx="0" cy="0" r="1" gradientUnits="userSpaceOnUse" gradientTransform="translate(180.5) rotate(90) scale(728 357)">
<stop stop-color="#203C47"/>
<stop offset="1" stop-color="#1E3645"/>
</radialGradient>
<linearGradient id="paint1_linear_0_8" x1="3" y1="1" x2="3" y2="727" gradientUnits="userSpaceOnUse">
<stop stop-color="#C3D8DF"/>
<stop offset="0.512303" stop-color="#7FA0B2"/>
<stop offset="1" stop-color="#A2B7C8"/>
</linearGradient>
<radialGradient id="paint2_radial_0_8" cx="0" cy="0" r="1" gradientUnits="userSpaceOnUse" gradientTransform="translate(180.5 364) rotate(62.2833) scale(391.976 325.153)">
<stop/>
<stop offset="0.540171" stop-color="#000101"/>
<stop offset="1" stop-color="#061822"/>
</radialGradient>
<radialGradient id="paint3_radial_0_8" cx="0" cy="0" r="1" gradientUnits="userSpaceOnUse" gradientTransform="translate(-101.704 456.5) rotate(-180) scale(734.982 694.944)">
<stop/>
<stop offset="0.505226" stop-color="#050505"/>
<stop offset="1" stop-color="#07273F"/>
</radialGradient>
<radialGradient id="paint4_radial_0_8" cx="0" cy="0" r="1" gradientUnits="userSpaceOnUse" gradientTransform="translate(-223.718 456.5) scale(657.718 621.889)">
<stop/>
<stop offset="0.596221" stop-color="#000101"/>
<stop offset="0.836234" stop-color="#1C6782"/>
<stop offset="1" stop-color="#2482A5"/>
</radialGradient>
<radialGradient id="paint5_radial_0_8" cx="0" cy="0" r="1" gradientUnits="userSpaceOnUse" gradientTransform="translate(-225.718 456.5) scale(657.718 621.889)">
<stop/>
<stop offset="0.596221" stop-color="#000101"/>
<stop offset="1" stop-color="#2482A5"/>
</radialGradient>
<radialGradient id="paint6_radial_0_8" cx="0" cy="0" r="1" gradientUnits="userSpaceOnUse" gradientTransform="translate(-118.26 456.5) scale(595.7 563.249)">
<stop/>
<stop offset="0.705971" stop-color="#000101"/>
<stop offset="0.856255" stop-color="#092230"/>
<stop offset="1" stop-color="#40C4F5"/>
</radialGradient>
<radialGradient id="paint7_radial_0_8" cx="0" cy="0" r="1" gradientUnits="userSpaceOnUse" gradientTransform="translate(50.5 606.704) rotate(90) scale(734.982 694.944)">
<stop/>
<stop offset="0.470375" stop-color="#050505"/>
<stop offset="0.855654" stop-color="#072237"/>
<stop offset="1" stop-color="#07273F"/>
</radialGradient>
<radialGradient id="paint8_radial_0_8" cx="0" cy="0" r="1" gradientUnits="userSpaceOnUse" gradientTransform="translate(-116.26 456.5) scale(595.7 563.249)">
<stop/>
<stop offset="0.705971" stop-color="#000101"/>
<stop offset="0.856255" stop-color="#092230"/>
<stop offset="1" stop-color="#40C4F5"/>
</radialGradient>
<radialGradient id="paint9_radial_0_8" cx="0" cy="0" r="1" gradientUnits="userSpaceOnUse" gradientTransform="translate(-116.26 456.5) scale(595.7 563.249)">
<stop/>
<stop offset="0.705971" stop-color="#000101"/>
<stop offset="0.825169" stop-color="#092230"/>
<stop offset="1" stop-color="#A5E7FF"/>
</radialGradient>
<radialGradient id="paint10_radial_0_8" cx="0" cy="0" r="1" gradientUnits="userSpaceOnUse" gradientTransform="translate(-116.26 456.5) scale(595.7 563.249)">
<stop/>
<stop offset="0.519637" stop-color="#000101"/>
<stop offset="0.820022" stop-color="#092230"/>
<stop offset="1" stop-color="#B6EBFF"/>
</radialGradient>
<radialGradient id="paint11_radial_0_8" cx="0" cy="0" r="1" gradientUnits="userSpaceOnUse" gradientTransform="translate(-138.5 748.704) rotate(90) scale(734.982 694.944)">
<stop/>
<stop offset="0.505226" stop-color="#050505"/>
<stop offset="1" stop-color="#07273F"/>
</radialGradient>
<radialGradient id="paint12_radial_0_8" cx="0" cy="0" r="1" gradientUnits="userSpaceOnUse" gradientTransform="translate(-138.5 870.718) rotate(-90) scale(657.718 621.889)">
<stop/>
<stop offset="0.596221" stop-color="#000101"/>
<stop offset="0.836234" stop-color="#1C6782"/>
<stop offset="1" stop-color="#2482A5"/>
</radialGradient>
<radialGradient id="paint13_radial_0_8" cx="0" cy="0" r="1" gradientUnits="userSpaceOnUse" gradientTransform="translate(-138.5 872.718) rotate(-90) scale(657.718 621.889)">
<stop/>
<stop offset="0.596221" stop-color="#000101"/>
<stop offset="1" stop-color="#2482A5"/>
</radialGradient>
<radialGradient id="paint14_radial_0_8" cx="0" cy="0" r="1" gradientUnits="userSpaceOnUse" gradientTransform="translate(-138.5 765.26) rotate(-90) scale(595.7 563.249)">
<stop/>
<stop offset="0.705971" stop-color="#000101"/>
<stop offset="0.856255" stop-color="#092230"/>
<stop offset="1" stop-color="#40C4F5"/>
</radialGradient>
<radialGradient id="paint15_radial_0_8" cx="0" cy="0" r="1" gradientUnits="userSpaceOnUse" gradientTransform="translate(-138.5 746.704) rotate(90) scale(734.982 694.944)">
<stop/>
<stop offset="0.470375" stop-color="#050505"/>
<stop offset="0.855654" stop-color="#072237"/>
<stop offset="1" stop-color="#07273F"/>
</radialGradient>
<radialGradient id="paint16_radial_0_8" cx="0" cy="0" r="1" gradientUnits="userSpaceOnUse" gradientTransform="translate(-138.5 763.26) rotate(-90) scale(595.7 563.249)">
<stop/>
<stop offset="0.705971" stop-color="#000101"/>
<stop offset="0.856255" stop-color="#092230"/>
<stop offset="1" stop-color="#40C4F5"/>
</radialGradient>
<radialGradient id="paint17_radial_0_8" cx="0" cy="0" r="1" gradientUnits="userSpaceOnUse" gradientTransform="translate(-138.5 763.26) rotate(-90) scale(595.7 563.249)">
<stop/>
<stop offset="0.705971" stop-color="#000101"/>
<stop offset="0.825169" stop-color="#092230"/>
<stop offset="1" stop-color="#A5E7FF"/>
</radialGradient>
<radialGradient id="paint18_radial_0_8" cx="0" cy="0" r="1" gradientUnits="userSpaceOnUse" gradientTransform="translate(-138.5 763.26) rotate(-90) scale(595.7 563.249)">
<stop/>
<stop offset="0.519637" stop-color="#000101"/>
<stop offset="0.820022" stop-color="#092230"/>
<stop offset="1" stop-color="#B6EBFF"/>
</radialGradient>
<linearGradient id="paint19_linear_0_8" x1="205.989" y1="35.0057" x2="223" y2="35.0057" gradientUnits="userSpaceOnUse">
<stop/>
<stop offset="1" stop-color="#1B1B1B"/>
</linearGradient>
<radialGradient id="paint20_radial_0_8" cx="0" cy="0" r="1" gradientUnits="userSpaceOnUse" gradientTransform="translate(218.45 26.5) rotate(90) scale(3.56357 1.61799)">
<stop stop-color="#0C3C6E"/>
<stop offset="1"/>
</radialGradient>
<radialGradient id="paint21_radial_0_8" cx="0" cy="0" r="1" gradientUnits="userSpaceOnUse" gradientTransform="translate(214.55 26.608) rotate(90) scale(3.45559 1.56896)">
<stop stop-color="#2D455D"/>
<stop offset="1"/>
</radialGradient>
</defs>
</svg>