<svg xmlns="http://www.w3.org/2000/svg" width="120" height="120" viewBox="0 0 120 120" fill="none">
<g clip-path="url(#clip0_0_629)">
<path fill-rule="evenodd" clip-rule="evenodd" d="M91.4062 0C108.75 0 120 11.25 120 28.5938V91.4062C120 108.75 108.75 120 91.4062 120H28.5938C11.25 120 0 108.75 0 91.4062V28.5938C0 11.25 11.25 0 28.5938 0H91.4062Z" fill="#DDDDDD"/>
<g clip-path="url(#clip1_0_629)">
<path fill-rule="evenodd" clip-rule="evenodd" d="M91.4062 0C108.75 0 120 11.25 120 28.5938V91.4062C120 108.75 108.75 120 91.4062 120H28.5938C11.25 120 0 108.75 0 91.4062V28.5938C0 11.25 11.25 0 28.5938 0H91.4062Z" fill="#DDDDDD"/>
<mask id="mask0_0_629" style="mask-type:luminance" maskUnits="userSpaceOnUse" x="0" y="0" width="120" height="120">
<path fill-rule="evenodd" clip-rule="evenodd" d="M91.4062 0C108.75 0 120 11.25 120 28.5938V91.4062C120 108.75 108.75 120 91.4062 120H28.5938C11.25 120 0 108.75 0 91.4062V28.5938C0 11.25 11.25 0 28.5938 0H91.4062Z" fill="white"/>
</mask>
<g mask="url(#mask0_0_629)">
</g>
<g clip-path="url(#clip2_0_629)">
<g filter="url(#filter0_d_0_629)">
<rect x="86" width="44" height="30" fill="#C9C8C5"/>
</g>
<g filter="url(#filter1_i_0_629)">
<rect x="86" y="30" width="44" height="30" fill="#5AC8FA"/>
</g>
<g filter="url(#filter2_i_0_629)">
<rect x="86" y="60" width="44" height="30" fill="#4CD964"/>
</g>
<g filter="url(#filter3_i_0_629)">
<rect x="86" y="90" width="44" height="30" fill="#FF9500"/>
</g>
</g>
<g clip-path="url(#clip3_0_629)">
<g filter="url(#filter4_d_0_629)">
<path fill-rule="evenodd" clip-rule="evenodd" d="M97 0.41655C95.2168 0.141269 93.3498 0 91.4062 0L28.5938 0C11.25 0 0 11.25 0 28.5938V91.4062C0 108.75 11.25 120 28.5938 120H91.4062C93.3498 120 95.2168 119.859 97 119.583V0.41655V0.41655Z" fill="#DDDDDD"/>
</g>
<mask id="mask1_0_629" style="mask-type:luminance" maskUnits="userSpaceOnUse" x="0" y="0" width="97" height="120">
<path fill-rule="evenodd" clip-rule="evenodd" d="M97 0.41655C95.2168 0.141269 93.3498 0 91.4062 0L28.5938 0C11.25 0 0 11.25 0 28.5938V91.4062C0 108.75 11.25 120 28.5938 120H91.4062C93.3498 120 95.2168 119.859 97 119.583V0.41655V0.41655Z" fill="white"/>
</mask>
<g mask="url(#mask1_0_629)">
<path fill-rule="evenodd" clip-rule="evenodd" d="M-1 107.505C-1 107.505 7.822 99.029 21.833 97.645C21.833 97.645 31.729 97.275 33.042 91.497C33.042 91.497 34.634 85.859 34.565 81.538C34.565 81.538 30.801 79.586 30.313 75.335C29.825 71.083 28.919 65.507 28.919 65.507C28.919 65.507 25.852 64.322 25.155 60.489C25.155 60.489 25.016 57.491 23.482 54.216C21.949 50.94 22.506 48.012 22.506 48.012C22.506 48.012 23.203 46.688 25.085 47.246C26.967 47.803 24.114 40.914 24.114 40.914C24.114 40.914 17.662 22.456 30.737 17.85C30.737 17.85 35.691 11.49 42.832 10.432C42.832 10.432 51.119 6.377 61.434 11.931C61.434 11.931 69.28 13.507 72.16 18.719C72.16 18.719 78.813 26.47 73.395 45.056C73.395 45.056 72.298 48.28 74.767 46.977C77.236 45.674 75.52 53.835 75.52 53.835C75.52 53.835 74.012 64.535 70.514 64.055C70.514 64.055 69.051 63.722 69.051 67.267C69.051 67.267 69.682 75.425 64.146 81.107C64.146 81.107 62.301 94.655 72.936 96.84C72.936 96.84 88.64 99.036 100.437 106.235V124.825L-1 124.24V107.505V107.505Z" fill="#9A9A9A"/>
</g>
</g>
</g>
</g>
<defs>
<filter id="filter0_d_0_629" x="82" y="-2" width="52" height="38" filterUnits="userSpaceOnUse" color-interpolation-filters="sRGB">
<feFlood flood-opacity="0" result="BackgroundImageFix"/>
<feColorMatrix in="SourceAlpha" type="matrix" values="0 0 0 0 0 0 0 0 0 0 0 0 0 0 0 0 0 0 127 0" result="hardAlpha"/>
<feOffset dy="2"/>
<feGaussianBlur stdDeviation="2"/>
<feColorMatrix type="matrix" values="0 0 0 0 0 0 0 0 0 0 0 0 0 0 0 0 0 0 0.5 0"/>
<feBlend mode="normal" in2="BackgroundImageFix" result="effect1_dropShadow_0_629"/>
<feBlend mode="normal" in="SourceGraphic" in2="effect1_dropShadow_0_629" result="shape"/>
</filter>
<filter id="filter1_i_0_629" x="86" y="30" width="45" height="32" filterUnits="userSpaceOnUse" color-interpolation-filters="sRGB">
<feFlood flood-opacity="0" result="BackgroundImageFix"/>
<feBlend mode="normal" in="SourceGraphic" in2="BackgroundImageFix" result="shape"/>
<feColorMatrix in="SourceAlpha" type="matrix" values="0 0 0 0 0 0 0 0 0 0 0 0 0 0 0 0 0 0 127 0" result="hardAlpha"/>
<feOffset dx="1" dy="2"/>
<feGaussianBlur stdDeviation="2"/>
<feComposite in2="hardAlpha" operator="arithmetic" k2="-1" k3="1"/>
<feColorMatrix type="matrix" values="0 0 0 0 0 0 0 0 0 0 0 0 0 0 0 0 0 0 0.25 0"/>
<feBlend mode="normal" in2="shape" result="effect1_innerShadow_0_629"/>
</filter>
<filter id="filter2_i_0_629" x="86" y="60" width="46" height="32" filterUnits="userSpaceOnUse" color-interpolation-filters="sRGB">
<feFlood flood-opacity="0" result="BackgroundImageFix"/>
<feBlend mode="normal" in="SourceGraphic" in2="BackgroundImageFix" result="shape"/>
<feColorMatrix in="SourceAlpha" type="matrix" values="0 0 0 0 0 0 0 0 0 0 0 0 0 0 0 0 0 0 127 0" result="hardAlpha"/>
<feOffset dx="2" dy="2"/>
<feGaussianBlur stdDeviation="2"/>
<feComposite in2="hardAlpha" operator="arithmetic" k2="-1" k3="1"/>
<feColorMatrix type="matrix" values="0 0 0 0 0 0 0 0 0 0 0 0 0 0 0 0 0 0 0.25 0"/>
<feBlend mode="normal" in2="shape" result="effect1_innerShadow_0_629"/>
</filter>
<filter id="filter3_i_0_629" x="86" y="90" width="44" height="32" filterUnits="userSpaceOnUse" color-interpolation-filters="sRGB">
<feFlood flood-opacity="0" result="BackgroundImageFix"/>
<feBlend mode="normal" in="SourceGraphic" in2="BackgroundImageFix" result="shape"/>
<feColorMatrix in="SourceAlpha" type="matrix" values="0 0 0 0 0 0 0 0 0 0 0 0 0 0 0 0 0 0 127 0" result="hardAlpha"/>
<feOffset dy="2"/>
<feGaussianBlur stdDeviation="2"/>
<feComposite in2="hardAlpha" operator="arithmetic" k2="-1" k3="1"/>
<feColorMatrix type="matrix" values="0 0 0 0 0 0 0 0 0 0 0 0 0 0 0 0 0 0 0.25 0"/>
<feBlend mode="normal" in2="shape" result="effect1_innerShadow_0_629"/>
</filter>
<filter id="filter4_d_0_629" x="-1" y="-4" width="105" height="128" filterUnits="userSpaceOnUse" color-interpolation-filters="sRGB">
<feFlood flood-opacity="0" result="BackgroundImageFix"/>
<feColorMatrix in="SourceAlpha" type="matrix" values="0 0 0 0 0 0 0 0 0 0 0 0 0 0 0 0 0 0 127 0" result="hardAlpha"/>
<feOffset dx="3"/>
<feGaussianBlur stdDeviation="2"/>
<feColorMatrix type="matrix" values="0 0 0 0 0 0 0 0 0 0 0 0 0 0 0 0 0 0 0.206437 0"/>
<feBlend mode="normal" in2="BackgroundImageFix" result="effect1_dropShadow_0_629"/>
<feBlend mode="normal" in="SourceGraphic" in2="effect1_dropShadow_0_629" result="shape"/>
</filter>
<clipPath id="clip0_0_629">
<rect width="120" height="120" fill="white"/>
</clipPath>
<clipPath id="clip1_0_629">
<rect width="120" height="120" fill="white"/>
</clipPath>
<clipPath id="clip2_0_629">
<rect width="44" height="120" fill="white" transform="translate(86)"/>
</clipPath>
<clipPath id="clip3_0_629">
<rect width="97" height="120" fill="white"/>
</clipPath>
</defs>
</svg>